# xmcd
# 
# Track frame offsets:
#     150
#     10693
#     21083
#     35138
#     47515
#     62163
#     72260
#     84405
#     93950
#     106163
#     120525
#     132480
#     146695
#     155835
#     171790
#     182568
# 
# Disc length: 2582
# 
# Revision: 3
# Processed by: cddbd v1.5.2PL0 Copyright (c) Steve Scherf et al.
# Submitted via: fre:ac v1.0.17
# 
DISCID=d40a1410
DTITLE=Memphis Slim - Rockin' The Blues
DYEAR=0
DGENRE=Blues
TTITLE0=Gotta Find My Baby
TTITLE1=The Comeback
TTITLE2=Messin' Around
TTITLE3=Sassy Mae
TTITLE4=Lend Me Your Love
TTITLE5=Guitar Cha Cha
TTITLE6=Stroll On Little Girl
TTITLE7=Rockin' The House
TTITLE8=Wish Me Well
TTITLE9=Blue And Lonesome
TTITLE10=My Gal Keeps Me Crying
TTITLE11=Slim's Blues
TTITLE12=Steppin' Out
TTITLE13=Mother Earth
TTITLE14=What's The Matter
TTITLE15=This Time I'm Through
EXTD=CD BM 21\n\nSubmitted 6/5/97\n[Jmccoy@efn.org]
EXTT0=
EXTT1=
EXTT2=
EXTT3=
EXTT4=
EXTT5=
EXTT6=
EXTT7=
EXTT8=
EXTT9=
EXTT10=
EXTT11=
EXTT12=
EXTT13=
EXTT14=
EXTT15=
PLAYORDER=
